<svg width="56" height="56" viewBox="0 0 56 56" fill="none" xmlns="http://www.w3.org/2000/svg">
<g clip-path="url(#clip0_401_2370)">
<path d="M55.1686 12.4413C54.4957 11.6424 53.5107 11.1842 52.466 11.1842H49.9588C48.8457 9.22469 46.764 7.99399 44.4705 7.99399H43.952V4.17896C43.952 3.57488 43.4623 3.08521 42.8582 3.08521C38.7812 3.08521 35.4643 6.40214 35.4643 10.4791V13.897C35.4643 16.2758 34.151 18.4313 32.037 19.5221L28.4659 21.3648C27.9291 21.6418 27.7184 22.3014 27.9953 22.8383C28.1895 23.2146 28.5719 23.4308 28.9682 23.4308C29.1371 23.4308 29.3085 23.3916 29.4689 23.3088L33.04 21.4661C35.8847 19.9983 37.6518 17.098 37.6518 13.8971V10.479C37.6518 7.98338 39.4171 5.89212 41.7645 5.38822V9.08775C41.7645 9.69183 42.2542 10.1815 42.8582 10.1815H44.4705C46.1335 10.1815 47.626 11.1715 48.273 12.7035C48.444 13.1085 48.8409 13.3718 49.2805 13.3718H52.466C52.8639 13.3718 53.2392 13.5463 53.4956 13.8507C53.7519 14.1551 53.8602 14.5546 53.7926 14.9468L53.3878 17.2949C53.1309 18.7842 51.8477 19.8651 50.3365 19.8651H45.467C45.4556 19.8651 45.4445 19.8664 45.4331 19.8668C45.4218 19.8665 45.4107 19.8651 45.3992 19.8651C44.7953 19.8651 44.3055 20.3548 44.3055 20.9589V26.3068C44.3055 30.1756 43.5587 33.9478 42.0859 37.5186C41.9951 37.7385 41.9787 37.9821 42.0388 38.2124L44.7291 48.5011C44.7761 48.6808 44.868 48.8455 44.9963 48.9799L45.9576 49.9865C46.1314 50.1686 46.0861 50.3624 46.0436 50.4616C46.001 50.5609 45.8922 50.7276 45.6405 50.7276H41.9968L37.2962 38.5484V33.4904C37.2962 32.8863 36.8064 32.3966 36.2025 32.3966C35.5984 32.3966 35.1087 32.8863 35.1087 33.4904V38.7521C35.1087 38.8868 35.1335 39.0203 35.1821 39.146L39.6521 50.7274H35.8045C35.2765 47.3056 32.3118 44.6774 28.7446 44.6774H27.51L27.0218 41.7803C26.5 38.684 24.178 36.2623 21.1063 35.6108L19.0374 35.172C18.4469 35.0468 17.8658 35.4241 17.7405 36.015C17.6151 36.6059 17.9926 37.1865 18.5836 37.3119L20.6525 37.7507C22.8397 38.2145 24.493 39.939 24.8646 42.1438L25.2916 44.6773H18.5526C17.9486 44.6773 17.4588 45.167 17.4588 45.7711C17.4588 46.3752 17.9486 46.8649 18.5526 46.8649H28.7446C31.1017 46.8649 33.0798 48.5188 33.579 50.7272H18.3739C12.9018 50.7272 8.44988 46.2753 8.44988 40.8032C8.44988 36.7018 10.7141 32.9856 14.3589 31.105L20.7233 27.8211C21.26 27.5442 21.4706 26.8844 21.1937 26.3476C20.9168 25.8108 20.2567 25.6 19.7202 25.8772L13.3558 29.1611C11.6097 30.062 10.1287 31.3146 8.97794 32.8066C8.85708 32.2332 8.79561 31.6453 8.79561 31.0456C8.79561 27.9916 10.4504 25.161 13.114 23.6584C13.8355 23.2514 14.1779 22.436 13.966 21.6292C13.743 20.7799 12.9801 20.1858 12.1077 20.179C12.1027 20.1789 12.0979 20.1782 12.0929 20.1782C12.0897 20.1782 12.0864 20.1782 12.0831 20.1784C12.0818 20.1784 12.0806 20.1786 12.0793 20.1786C5.54857 20.1858 0.132063 25.5646 0.00234282 32.1751C-0.0882204 36.7878 2.45324 41.0854 6.50857 43.2399C7.6394 48.7543 12.5299 52.9148 18.3739 52.9148H45.6406C46.7094 52.9148 47.6344 52.3043 48.0548 51.3217C48.4752 50.3391 48.2778 49.2485 47.5396 48.4754L46.7738 47.6736L44.247 38.0101C45.7374 34.2751 46.4929 30.3396 46.4929 26.3067V22.0525H50.3365C52.9153 22.0525 55.1052 20.2079 55.5434 17.6664L55.9482 15.3182C56.1258 14.2888 55.8417 13.2402 55.1686 12.4413V12.4413ZM2.18953 32.2181C2.28874 27.1632 6.1415 22.9853 10.9901 22.4289C8.26033 24.4225 6.60832 27.6224 6.60832 31.0456C6.60832 32.5198 6.90166 33.9393 7.47993 35.2736C6.73126 36.8859 6.30852 38.6613 6.2675 40.5076C3.6835 38.5896 2.12511 35.501 2.18953 32.2181Z" fill="#2A5A32"/>
<path d="M45.578 14.6704C45.7813 14.4669 45.8984 14.1848 45.8984 13.8971C45.8984 13.6094 45.7814 13.3273 45.578 13.1238C45.3745 12.9204 45.0922 12.8033 44.8047 12.8033C44.5159 12.8033 44.2348 12.9204 44.0314 13.1238C43.827 13.3273 43.7109 13.6094 43.7109 13.8971C43.7109 14.1848 43.827 14.4669 44.0314 14.6704C44.2348 14.8738 44.517 14.9908 44.8047 14.9908C45.0922 14.9908 45.3734 14.8738 45.578 14.6704Z" fill="#2A5A32"/>
<path d="M24.5938 25.6867C24.8815 25.6867 25.1625 25.5707 25.367 25.3673C25.5705 25.1627 25.6875 24.8817 25.6875 24.594C25.6875 24.3063 25.5706 24.0242 25.367 23.8196C25.1636 23.6162 24.8815 23.5002 24.5938 23.5002C24.305 23.5002 24.0228 23.6162 23.8195 23.8196C23.616 24.0231 23.5 24.3052 23.5 24.594C23.5 24.8817 23.616 25.1638 23.8195 25.3673C24.0229 25.5707 24.3051 25.6867 24.5938 25.6867Z" fill="#2A5A32"/>
</g>
<defs>
<clipPath id="clip0_401_2370">
<rect width="56" height="56" fill="white"/>
</clipPath>
</defs>
</svg>
