<svg width="52" height="52" viewBox="0 0 52 52" fill="none" xmlns="http://www.w3.org/2000/svg">
<path d="M47.5073 8.94758C47.3174 8.75766 47.0564 8.6499 46.7892 8.6499C46.521 8.6499 46.26 8.75766 46.07 8.94758C45.8812 9.13639 45.7734 9.3975 45.7734 9.66563C45.7734 9.93274 45.8812 10.1949 46.07 10.3838C46.2599 10.5727 46.5209 10.6814 46.7892 10.6814C47.0563 10.6814 47.3174 10.5728 47.5073 10.3838C47.6962 10.1949 47.8039 9.93284 47.8039 9.66563C47.8039 9.3975 47.6962 9.13639 47.5073 8.94758Z" fill="#4E325F"/>
<path d="M24.1792 32.8684C23.9894 32.6784 23.7283 32.5707 23.461 32.5707C23.1929 32.5707 22.9318 32.6784 22.7419 32.8684C22.5531 33.0572 22.4453 33.3183 22.4453 33.5864C22.4453 33.8535 22.5531 34.1155 22.7419 34.3046C22.9318 34.4935 23.1928 34.6021 23.461 34.6021C23.7282 34.6021 23.9893 34.4936 24.1792 34.3046C24.3681 34.1156 24.4758 33.8536 24.4758 33.5864C24.4759 33.3183 24.3682 33.0572 24.1792 32.8684Z" fill="#4E325F"/>
<path d="M49.967 12.3208C49.6898 11.8331 49.0694 11.6627 48.582 11.94C48.0944 12.2172 47.9239 12.8374 48.2013 13.325C51.2183 18.6304 50.3075 25.3538 45.9862 29.675L45.216 30.4452C45.03 29.957 44.7417 29.499 44.349 29.1064L33.9128 18.6703C34.5953 18.3346 35.2259 17.8866 35.7796 17.3329L37.7812 15.3312C38.1778 14.9346 38.1778 14.2915 37.7812 13.8949C37.3844 13.4982 36.7415 13.4982 36.3447 13.8949L34.3431 15.8965C33.4027 16.8368 32.1526 17.3547 30.8228 17.3547H26.8215C26.5522 17.3547 26.2939 17.4617 26.1033 17.6522L23.0402 20.7153C22.1306 21.625 20.6505 21.625 19.7409 20.7153C18.8312 19.8057 18.8312 18.3256 19.7409 17.416L26.7341 10.4229C31.0077 6.14918 37.6797 5.20933 42.9584 8.13737C43.4489 8.40926 44.0673 8.23243 44.3393 7.74179C44.6114 7.25124 44.4343 6.63293 43.9438 6.36084C41.0322 4.7461 37.6018 4.09986 34.2839 4.54175C31.179 4.95522 28.337 6.25532 26.0073 8.31826C23.1454 5.78112 19.502 4.39368 15.6447 4.39368C11.4658 4.39368 7.53716 6.02101 4.5822 8.97587C1.62723 11.9307 0 15.8597 0 20.0385C0 24.2174 1.62734 28.146 4.5822 31.101L4.96498 31.4838C5.03161 31.5503 5.10555 31.6047 5.18365 31.6489C5.25159 32.5276 5.61976 33.3872 6.29038 34.0578C7.03676 34.804 8.01663 35.177 8.99681 35.177C9.0477 35.177 9.09868 35.1753 9.14956 35.1733C9.14753 35.2247 9.14581 35.2761 9.14581 35.3278C9.14581 36.3501 9.54393 37.3113 10.2669 38.0342C11.0132 38.7805 11.9931 39.1536 12.9733 39.1535C13.0242 39.1535 13.0752 39.1518 13.126 39.1498C13.124 39.2012 13.1223 39.2526 13.1223 39.3043C13.1223 40.3266 13.5204 41.2878 14.2434 42.0107C14.9897 42.7569 15.9698 43.1299 16.9499 43.1299C17.0014 43.1299 17.0529 43.1283 17.1043 43.1263C17.0631 44.1572 17.4345 45.2019 18.2199 45.9874C18.9429 46.7103 19.9041 47.1084 20.9263 47.1084C21.9488 47.1084 22.91 46.7103 23.6328 45.9874L25.0523 44.5677L26.9697 46.4849C27.6926 47.208 28.6538 47.6061 29.6762 47.6061C30.6985 47.6061 31.6597 47.208 32.3826 46.485C33.1774 45.6902 33.5487 44.6298 33.4969 43.5868C33.5607 43.5899 33.6247 43.5917 33.6886 43.5917C34.6688 43.5917 35.649 43.2187 36.3952 42.4724C37.1802 41.6874 37.5516 40.6436 37.5108 39.6131C37.5622 39.6152 37.6136 39.6169 37.6653 39.6169C38.6876 39.6169 39.6488 39.2188 40.3717 38.4958C41.1567 37.7109 41.5281 36.667 41.4873 35.6365C41.5387 35.6386 41.59 35.6403 41.6417 35.6403C42.6641 35.6403 43.6253 35.2422 44.3482 34.5193C44.7153 34.1521 44.9918 33.728 45.1783 33.2753C45.2771 33.2272 45.37 33.1631 45.4522 33.081L47.4219 31.1113C52.3884 26.1458 53.4347 18.4188 49.967 12.3208ZM8.99691 33.1473C8.51713 33.1473 8.06609 32.9606 7.72677 32.6213C7.38756 32.282 7.20068 31.831 7.20068 31.3512C7.20068 30.8715 7.38745 30.4204 7.72677 30.0812L9.4771 28.3308C9.81632 27.9915 10.2675 27.8048 10.7472 27.8048C11.2269 27.8048 11.6781 27.9915 12.0173 28.3308C12.7177 29.0312 12.7177 30.1706 12.0173 30.8709L10.267 32.6214C9.92773 32.9605 9.4768 33.1473 8.99691 33.1473ZM11.7036 36.5979C11.3642 36.2587 11.1775 35.8076 11.1775 35.3279C11.1775 34.8481 11.3642 34.3971 11.7036 34.0579L13.454 32.3074C13.454 32.3074 13.454 32.3074 13.454 32.3073C13.7932 31.9681 14.2442 31.7812 14.724 31.7812C15.2037 31.7812 15.6548 31.968 15.9941 32.3073C16.6944 33.0077 16.6944 34.1471 15.9941 34.8474L14.2437 36.5978C13.5433 37.2981 12.4035 37.2981 11.7036 36.5979ZM15.68 40.5744C15.3407 40.2352 15.1539 39.7841 15.1539 39.3044C15.1539 38.8246 15.3407 38.3736 15.68 38.0343L17.4305 36.2839C17.4305 36.2839 17.4305 36.2839 17.4305 36.2838C17.7697 35.9446 18.2207 35.7577 18.7005 35.7577C19.1803 35.7577 19.6313 35.9445 19.9705 36.2838C20.6709 36.9843 20.6709 38.1237 19.9705 38.824L18.2201 40.5744C17.5198 41.2748 16.3804 41.2748 15.68 40.5744ZM23.9471 42.8007L22.1967 44.5512C21.8575 44.8904 21.4064 45.0773 20.9266 45.0773C20.447 45.0773 19.9958 44.8905 19.6566 44.5512C18.9562 43.8507 18.9562 42.7113 19.6566 42.011L21.407 40.2606C21.407 40.2606 21.407 40.2606 21.407 40.2605C21.7463 39.9213 22.1973 39.7344 22.6771 39.7344C23.1568 39.7344 23.6079 39.9212 23.9471 40.2605C24.2864 40.5997 24.4732 41.0508 24.4732 41.5305C24.4733 42.0105 24.2864 42.4614 23.9471 42.8007ZM42.9125 33.0829C42.5733 33.4222 42.1221 33.609 41.6425 33.609C41.1627 33.609 40.7116 33.4222 40.3724 33.0829L36.1447 28.8551C36.1445 28.8549 36.1444 28.8548 36.1442 28.8546L32.168 24.8784C31.7713 24.4818 31.1283 24.4818 30.7315 24.8784C30.3349 25.275 30.3349 25.9182 30.7315 26.3148L38.9359 34.5191C39.6363 35.2195 39.6363 36.359 38.9359 37.0592C38.5967 37.3986 38.1456 37.5853 37.6659 37.5853C37.1861 37.5853 36.7351 37.3986 36.3958 37.0592L28.1914 28.8549C27.7947 28.4584 27.1517 28.4584 26.7549 28.8549C26.3583 29.2515 26.3583 29.8947 26.7549 30.2914L30.7307 34.2671C30.731 34.2674 30.7313 34.2678 30.7316 34.2681L34.9594 38.4957C35.6598 39.1962 35.6598 40.3357 34.9595 41.036C34.2591 41.7364 33.1194 41.7364 32.4194 41.036L28.1915 36.8082C28.1133 36.7301 28.0255 36.6679 27.9319 36.6206L26.7261 35.4147C26.3294 35.0182 25.6864 35.0182 25.2896 35.4147C24.893 35.8113 24.893 36.4545 25.2896 36.8512L30.9468 42.5083C31.6472 43.2087 31.6472 44.3482 30.9468 45.0484C30.6076 45.3878 30.1564 45.5745 29.6768 45.5745C29.197 45.5745 28.7459 45.3878 28.4067 45.0484L26.254 42.8958C26.418 42.4655 26.5048 42.0047 26.5048 41.5304C26.5048 40.5081 26.1066 39.5469 25.3837 38.824C24.6607 38.1011 23.6995 37.7029 22.6773 37.7029C22.6256 37.7029 22.5742 37.7047 22.5228 37.7067C22.5635 36.6762 22.1922 35.6324 21.4072 34.8474C20.6842 34.1245 19.723 33.7264 18.7008 33.7264C18.6491 33.7264 18.5977 33.7281 18.5463 33.7301C18.5872 32.6997 18.2157 31.6558 17.4308 30.8708C16.7077 30.1479 15.7466 29.7498 14.7243 29.7498C14.6726 29.7498 14.6212 29.7515 14.5699 29.7535C14.6107 28.7231 14.2393 27.6792 13.4543 26.8942C11.9619 25.4019 9.53347 25.402 8.04111 26.8942L6.29078 28.6446C6.06998 28.8654 5.8828 29.107 5.72721 29.3627C3.34141 26.8286 2.03186 23.5343 2.03186 20.0383C2.03186 16.402 3.44784 12.9833 6.0192 10.4122C8.59036 7.84101 12.0092 6.42493 15.6453 6.42493C18.9497 6.42493 22.0744 7.59452 24.5466 9.73769L18.3049 15.9794C17.4806 16.8038 17.0267 17.8998 17.0267 19.0655C17.0267 20.2313 17.4806 21.3273 18.3049 22.1517C19.1558 23.0025 20.2735 23.4279 21.3911 23.4279C22.5087 23.4279 23.6264 23.0026 24.4773 22.1517L27.243 19.3859H30.8234C31.1191 19.3859 31.4115 19.3657 31.7003 19.3299L42.9131 30.5425C43.6128 31.2432 43.6128 32.3827 42.9125 33.0829Z" fill="#4E325F"/>
</svg>
