<svg width="51" height="51" viewBox="0 0 51 51" fill="none" xmlns="http://www.w3.org/2000/svg">
<path d="M22.5117 44.4258H28.4883C29.0383 44.4258 29.4844 43.9798 29.4844 43.4297V38.4492H34.4648C35.0149 38.4492 35.4609 38.0033 35.4609 37.4531V31.4766C35.4609 30.9264 35.0149 30.4805 34.4648 30.4805H29.4844V25.5C29.4844 24.9499 29.0383 24.5039 28.4883 24.5039H22.5117C21.9616 24.5039 21.5156 24.9499 21.5156 25.5V30.4805H16.5352C15.985 30.4805 15.5391 30.9264 15.5391 31.4766V37.4531C15.5391 38.0033 15.985 38.4492 16.5352 38.4492H21.5156V43.4297C21.5156 43.9798 21.9616 44.4258 22.5117 44.4258ZM17.5312 36.457V32.4727H22.5117C23.0619 32.4727 23.5078 32.0267 23.5078 31.4766V26.4961H27.4922V31.4766C27.4922 32.0267 27.9382 32.4727 28.4883 32.4727H33.4688V36.457H28.4883C27.9382 36.457 27.4922 36.903 27.4922 37.4531V42.4336H23.5078V37.4531C23.5078 36.903 23.0619 36.457 22.5117 36.457H17.5312Z" fill="#7C6645"/>
<path d="M25.5 51C26.0501 51 26.4961 50.554 26.4961 50.0039C26.4961 49.4538 26.0501 49.0078 25.5 49.0078C24.9499 49.0078 24.5039 49.4538 24.5039 50.0039C24.5039 50.554 24.9499 51 25.5 51Z" fill="#7C6645"/>
<path d="M3.98438 51H21.0176C21.5677 51 22.0137 50.554 22.0137 50.0039C22.0137 49.4538 21.5677 49.0078 21.0176 49.0078H3.98438C2.88588 49.0078 1.99219 48.1141 1.99219 47.0156V20.5195H5.97656V25.5C5.97656 26.0501 6.42251 26.4961 6.97266 26.4961H12.9492C13.4994 26.4961 13.9453 26.0501 13.9453 25.5V20.5195H37.0547V25.5C37.0547 26.0501 37.5007 26.4961 38.0508 26.4961H44.0273C44.5774 26.4961 45.0234 26.0501 45.0234 25.5V20.5195H49.0078V47.0156C49.0078 48.1141 48.1141 49.0078 47.0156 49.0078H29.9824C29.4324 49.0078 28.9863 49.4538 28.9863 50.0039C28.9863 50.554 29.4324 51 29.9824 51H47.0156C49.2126 51 51 49.2126 51 47.0156V13.5469C51 11.3499 49.2126 9.5625 47.0156 9.5625H38.4492V3.98438C38.4492 1.78739 36.6618 0 34.4648 0H16.5352C14.3382 0 12.5508 1.78739 12.5508 3.98438V9.5625H3.98438C1.78739 9.5625 0 11.3499 0 13.5469V47.0156C0 49.2126 1.78739 51 3.98438 51ZM11.9531 24.5039H7.96875V20.5195H11.9531V24.5039ZM43.0312 24.5039H39.0469V20.5195H43.0312V24.5039ZM14.543 3.98438C14.543 2.88588 15.4367 1.99219 16.5352 1.99219H34.4648C35.5633 1.99219 36.457 2.88588 36.457 3.98438V9.5625H14.543V3.98438ZM3.98438 11.5547H47.0156C48.1141 11.5547 49.0078 12.4484 49.0078 13.5469V18.5273H1.99219V13.5469C1.99219 12.4484 2.88588 11.5547 3.98438 11.5547Z" fill="#7C6645"/>
</svg>
