<svg width="29" height="29" viewBox="0 0 29 29" fill="none" xmlns="http://www.w3.org/2000/svg">
<g clip-path="url(#clip0_401_2539)">
<path d="M19.3941 15.3695C18.0892 13.3337 15.8667 12.1182 13.4488 12.1182C11.031 12.1182 8.80852 13.3337 7.50379 15.3695L4.35935 20.2748C3.83764 21.0886 3.59692 22.0289 3.66307 22.9934C3.72923 23.958 4.09628 24.8563 4.72442 25.5918C5.353 26.3265 6.18358 26.8288 7.12634 27.0443C8.06909 27.2598 9.03552 27.1677 9.92098 26.7786L9.98027 26.7522C12.2083 25.7924 14.7542 25.8013 16.9765 26.7786C17.5498 27.0306 18.1571 27.158 18.77 27.158C19.1032 27.158 19.4384 27.1202 19.7705 27.0445C20.7132 26.8292 21.5438 26.327 22.1726 25.592C22.801 24.8572 23.1682 23.9587 23.2346 22.9938C23.301 22.0289 23.0603 21.0888 22.5386 20.2746L19.3941 15.3695Z" fill="#F52456"/>
<path d="M5.20499 15.3631C6.14044 15.0038 6.8511 14.25 7.20599 13.2404C7.54385 12.2797 7.51619 11.1951 7.12789 10.1862C6.73937 9.17797 6.03269 8.35491 5.13795 7.86838C4.19807 7.3575 3.16548 7.27431 2.23158 7.63429C0.3527 8.35668 -0.509521 10.6785 0.309777 12.8112C0.964242 14.5086 2.49066 15.5801 4.0339 15.5801C4.42795 15.5801 4.82311 15.5102 5.20499 15.3631Z" fill="#F52456"/>
<path d="M11.3062 11.52C13.655 11.52 15.566 9.34283 15.566 6.66678C15.566 3.99007 13.655 1.8125 11.3062 1.8125C8.95761 1.8125 7.04688 3.99007 7.04688 6.66678C7.04688 9.34283 8.95761 11.52 11.3062 11.52Z" fill="#F52456"/>
<path d="M18.6636 12.7123H18.6638C19.0251 12.8322 19.3937 12.8895 19.7608 12.8895C21.4737 12.8895 23.143 11.6427 23.78 9.7267C24.1469 8.62375 24.1227 7.45753 23.7121 6.44309C23.2824 5.38108 22.4861 4.61023 21.4697 4.27238C20.4531 3.93453 19.3537 4.07547 18.3737 4.66887C17.4376 5.23571 16.7203 6.15546 16.3539 7.2584C15.5806 9.58509 16.6168 12.0317 18.6636 12.7123V12.7123Z" fill="#F52456"/>
<path d="M27.6349 12.1459L27.6342 12.1452C26.0144 10.9487 23.5919 11.4673 22.2337 13.3019C20.8767 15.1374 21.0889 17.6051 22.7063 18.8025C23.2961 19.2394 23.9931 19.4483 24.7064 19.4483C25.9496 19.4483 27.243 18.8138 28.1077 17.6469C29.4644 15.8114 29.2524 13.3437 27.6349 12.1459V12.1459Z" fill="#F52456"/>
</g>
<defs>
<clipPath id="clip0_401_2539">
<rect width="29" height="29" fill="white"/>
</clipPath>
</defs>
</svg>
