<svg width="39" height="24" viewBox="0 0 39 24" fill="none" xmlns="http://www.w3.org/2000/svg">
<path d="M27 11L31 15L38 8" stroke="#32B71D"/>
<g clip-path="url(#clip0_401_2461)">
<path d="M23.4505 1.39364C22.7181 0.660619 21.5316 0.660243 20.7987 1.39378L16.5661 5.63416C15.2947 4.67909 13.4612 4.76197 12.2811 5.94259L8.60312 9.62015C8.3357 9.55115 8.06041 9.5159 7.78118 9.5159C6.12629 9.5159 4.75367 10.7472 4.53144 12.3419C4.44351 12.3329 4.35482 12.3284 4.26562 12.3284C2.84407 12.3284 1.68754 13.4849 1.68754 14.9064C1.68754 14.985 1.69134 15.0632 1.69832 15.1408H0.468766C0.316284 15.1408 0.173365 15.215 0.0855228 15.3396C-0.00227254 15.4642 -0.0239753 15.6238 0.0273988 15.7674L2.5586 22.8454C2.62531 23.0318 2.80193 23.1563 2.99997 23.1563H6.37491C6.63375 23.1563 6.84365 22.9464 6.84365 22.6875C6.84365 22.1706 7.26421 21.7501 7.78113 21.7501H9.89052C10.1494 21.7501 10.3593 21.5402 10.3593 21.2813C10.3593 21.0224 10.1494 20.8126 9.89052 20.8126H7.78113C6.90909 20.8126 6.17415 21.411 5.96551 22.2188H3.33015L1.13419 16.0783H22.8654L20.6694 22.2188H18.0341C17.8254 21.411 17.0905 20.8126 16.2184 20.8126H14.1091C13.8503 20.8126 13.6404 21.0224 13.6404 21.2813C13.6404 21.5402 13.8503 21.7501 14.1091 21.7501H16.2185C16.7354 21.7501 17.156 22.1706 17.156 22.6875C17.156 22.9464 17.3659 23.1563 17.6247 23.1563H20.9996C21.1977 23.1563 21.3743 23.0318 21.441 22.8454L23.9722 15.7674C24.0236 15.6238 24.0019 15.4642 23.9141 15.3396C23.8263 15.215 23.6833 15.1408 23.5309 15.1408H22.2781C22.0544 13.5843 20.7344 12.3779 19.1281 12.3308C20.0988 11.1506 20.1081 9.47053 19.2179 8.2855L23.4501 4.04498C24.1828 3.31285 24.1837 2.12623 23.4505 1.39364V1.39364ZM21.3275 15.1408H2.64185C2.63088 15.0636 2.62498 14.9854 2.62498 14.9064C2.62498 14.0018 3.36095 13.2658 4.26557 13.2658C4.45415 13.2658 4.63874 13.2974 4.81409 13.3597C5.12473 13.4701 5.45111 13.2329 5.43949 12.9015C5.39027 11.5163 6.48825 10.4534 7.78113 10.4534C9.08803 10.4534 10.1248 11.516 10.1248 12.7971C10.1248 13.056 10.3347 13.2658 10.5936 13.2658C10.8524 13.2658 11.0623 13.056 11.0623 12.7971C11.0623 12.4896 11.0202 12.1894 10.9377 11.8996C11.0964 11.8644 11.2609 11.852 11.4291 11.8647C11.8659 11.8995 12.2633 12.1035 12.548 12.439C12.7205 12.6421 13.0274 12.6608 13.2232 12.4802C13.6571 12.08 14.2214 11.8596 14.8122 11.8596C15.8347 11.8596 16.7056 12.5181 17.0243 13.427C17.1256 13.7157 17.4728 13.8318 17.7273 13.6615C18.1216 13.3978 18.575 13.2657 19.0309 13.2657C20.1628 13.2658 21.1097 14.0723 21.3275 15.1408V15.1408ZM22.7871 3.38223L18.2468 7.93137C18.0641 8.11446 18.0642 8.41098 18.2471 8.59393C19.163 9.50976 19.1633 10.9922 18.2471 11.9084L17.6305 12.5253C17.3028 11.9776 16.8204 11.535 16.249 11.255L16.9212 10.5828C17.1043 10.3998 17.1043 10.103 16.9212 9.91986C16.7381 9.73682 16.4414 9.73682 16.2583 9.91986L15.2286 10.9495C15.0906 10.932 14.9515 10.9221 14.8123 10.9221C14.1359 10.9221 13.4843 11.1286 12.9371 11.5102C12.764 11.3668 12.574 11.2479 12.3715 11.1552L14.9328 8.59389C15.1158 8.41084 15.1158 8.11403 14.9328 7.93099C14.7497 7.74795 14.453 7.74795 14.2698 7.93099L11.2782 10.9226C11.0302 10.9244 10.7831 10.9618 10.5469 11.0334C10.2857 10.6257 9.93608 10.2792 9.52785 10.0211L12.9439 6.60539C13.8598 5.68919 15.3421 5.68905 16.2581 6.60539C16.4413 6.78867 16.7384 6.78848 16.9214 6.60515L21.4619 2.0562C21.8233 1.69457 22.4166 1.68533 22.7874 2.05648C23.1512 2.41995 23.1566 3.01295 22.7871 3.38223V3.38223Z" fill="black"/>
<path d="M12 21.75C12.2589 21.75 12.4688 21.5401 12.4688 21.2812C12.4688 21.0224 12.2589 20.8125 12 20.8125C11.7411 20.8125 11.5312 21.0224 11.5312 21.2812C11.5312 21.5401 11.7411 21.75 12 21.75Z" fill="black"/>
</g>
<defs>
<clipPath id="clip0_401_2461">
<rect width="24" height="24" fill="white"/>
</clipPath>
</defs>
</svg>
