<svg width="193" height="70" viewBox="0 0 193 70" fill="none" xmlns="http://www.w3.org/2000/svg">
<g filter="url(#filter0_d_448_2259)">
<path d="M10 15C10 11.134 13.134 8 17 8H49C52.866 8 56 11.134 56 15V47C56 50.866 52.866 54 49 54H32.2329C30.8167 54 29.4724 54.6235 28.5577 55.7045L28.1436 56.194C26.3061 58.3655 22.9084 58.201 21.2893 55.8623C20.4818 54.696 19.1535 54 17.735 54H16.5619C12.9379 54 10 51.0621 10 47.4381V15Z" fill="black"/>
</g>
<g clip-path="url(#clip0_448_2259)">
<path d="M37.3104 31.5902C36.4529 29.5819 34.6554 28.1668 32.5021 27.8049C30.3488 27.4431 28.1875 28.1931 26.7209 29.8109L23.1864 33.709C22.5999 34.3557 22.2448 35.1571 22.1594 36.0259C22.074 36.895 22.2664 37.7499 22.7158 38.4989C23.1657 39.2474 23.8302 39.819 24.6376 40.152C25.4449 40.485 26.3194 40.5476 27.1662 40.3335L27.223 40.319C29.3509 39.7976 31.617 40.1865 33.4499 41.3894C33.9227 41.6996 34.4446 41.904 34.9904 41.9957C35.2871 42.0456 35.5913 42.0621 35.8984 42.0444C36.7702 41.9937 37.5851 41.6707 38.2551 41.1102C38.9247 40.5499 39.3863 39.8046 39.5898 38.9552C39.7933 38.1058 39.7196 37.2326 39.3768 36.4294L37.3104 31.5902Z" fill="#F4CB38"/>
<path d="M24.6764 29.4615C25.5633 29.2815 26.309 28.7165 26.7762 27.8704C27.2209 27.0654 27.3585 26.0954 27.1637 25.1387C26.9686 24.1826 26.4624 23.3439 25.7383 22.7766C24.9777 22.181 24.0705 21.9524 23.1849 22.1332C21.4035 22.4954 20.2881 24.4342 20.6987 26.4561C21.0275 28.0658 22.2266 29.2486 23.601 29.4795C23.9519 29.5385 24.3143 29.5354 24.6764 29.4615Z" fill="#F4CB38"/>
<path d="M30.6844 26.9518C32.7762 27.3033 34.8039 25.6503 35.2044 23.2671C35.605 20.8832 34.229 18.6579 32.1371 18.3064C30.0455 17.9549 28.0179 19.6083 27.6173 21.9922C27.2168 24.3755 28.5927 26.6003 30.6844 26.9518Z" fill="#F4CB38"/>
<path d="M37.0577 29.1146L37.0579 29.1146C37.3618 29.2755 37.6815 29.3817 38.0084 29.4366C39.5339 29.6929 41.2072 28.8324 42.0612 27.2213C42.553 26.2939 42.7061 25.2517 42.4921 24.2867C42.2684 23.2766 41.6746 22.4709 40.8199 22.0179C39.965 21.5649 38.9648 21.5259 38.0033 21.9077C37.0848 22.2725 36.3083 22.9842 35.8169 23.9117C34.7801 25.8681 35.3367 28.2021 37.0577 29.1146Z" fill="#F4CB38"/>
<path d="M45.1309 29.9523L45.1305 29.9516C43.8669 28.6436 41.6319 28.743 40.1476 30.1736C38.6645 31.6052 38.4841 33.8347 39.7454 35.1431C40.2053 35.6206 40.7947 35.9109 41.43 36.0176C42.5372 36.2037 43.7841 35.8321 44.7288 34.9223C46.2118 33.4906 46.3923 31.2612 45.1309 29.9523Z" fill="#F4CB38"/>
</g>
<path d="M86.446 24.4V37H82.198V32.356H78.274V37H74.026V24.4H78.274V28.864H82.198V24.4H86.446ZM98.2488 34.804H93.4608L92.6148 37H88.2948L93.8028 24.4H97.9788L103.487 37H99.0948L98.2488 34.804ZM97.0788 31.744L95.8548 28.576L94.6308 31.744H97.0788ZM111.401 24.4C112.565 24.4 113.579 24.592 114.443 24.976C115.307 25.36 115.973 25.912 116.441 26.632C116.909 27.352 117.143 28.192 117.143 29.152C117.143 30.112 116.909 30.952 116.441 31.672C115.973 32.392 115.307 32.944 114.443 33.328C113.579 33.712 112.565 33.904 111.401 33.904H109.583V37H105.335V24.4H111.401ZM111.131 30.628C111.707 30.628 112.139 30.502 112.427 30.25C112.715 29.986 112.859 29.62 112.859 29.152C112.859 28.684 112.715 28.324 112.427 28.072C112.139 27.808 111.707 27.676 111.131 27.676H109.583V30.628H111.131ZM125.772 24.4C126.936 24.4 127.95 24.592 128.814 24.976C129.678 25.36 130.344 25.912 130.812 26.632C131.28 27.352 131.514 28.192 131.514 29.152C131.514 30.112 131.28 30.952 130.812 31.672C130.344 32.392 129.678 32.944 128.814 33.328C127.95 33.712 126.936 33.904 125.772 33.904H123.954V37H119.706V24.4H125.772ZM125.502 30.628C126.078 30.628 126.51 30.502 126.798 30.25C127.086 29.986 127.23 29.62 127.23 29.152C127.23 28.684 127.086 28.324 126.798 28.072C126.51 27.808 126.078 27.676 125.502 27.676H123.954V30.628H125.502ZM141.565 32.428V37H137.317V32.374L132.565 24.4H137.047L139.621 28.756L142.213 24.4H146.317L141.565 32.428ZM160.659 24.4C161.823 24.4 162.837 24.592 163.701 24.976C164.565 25.36 165.231 25.912 165.699 26.632C166.167 27.352 166.401 28.192 166.401 29.152C166.401 30.112 166.167 30.952 165.699 31.672C165.231 32.392 164.565 32.944 163.701 33.328C162.837 33.712 161.823 33.904 160.659 33.904H158.841V37H154.593V24.4H160.659ZM160.389 30.628C160.965 30.628 161.397 30.502 161.685 30.25C161.973 29.986 162.117 29.62 162.117 29.152C162.117 28.684 161.973 28.324 161.685 28.072C161.397 27.808 160.965 27.676 160.389 27.676H158.841V30.628H160.389ZM179.44 33.796V37H168.964V24.4H179.206V27.604H173.14V29.08H178.468V32.14H173.14V33.796H179.44ZM184.981 27.694H181.291V24.4H192.919V27.694H189.229V37H184.981V27.694Z" fill="white"/>
<defs>
<filter id="filter0_d_448_2259" x="0" y="0" width="66" height="69.7246" filterUnits="userSpaceOnUse" color-interpolation-filters="sRGB">
<feFlood flood-opacity="0" result="BackgroundImageFix"/>
<feColorMatrix in="SourceAlpha" type="matrix" values="0 0 0 0 0 0 0 0 0 0 0 0 0 0 0 0 0 0 127 0" result="hardAlpha"/>
<feOffset dy="2"/>
<feGaussianBlur stdDeviation="5"/>
<feColorMatrix type="matrix" values="0 0 0 0 1 0 0 0 0 1 0 0 0 0 1 0 0 0 0.15 0"/>
<feBlend mode="normal" in2="BackgroundImageFix" result="effect1_dropShadow_448_2259"/>
<feBlend mode="normal" in="SourceGraphic" in2="effect1_dropShadow_448_2259" result="shape"/>
</filter>
<clipPath id="clip0_448_2259">
<rect width="26.1895" height="26.1895" fill="white" transform="translate(22.3398 15) rotate(9.53851)"/>
</clipPath>
</defs>
</svg>
